<?xml version="1.0" encoding="UTF-8"?><svg id="Layer_1" xmlns="http://www.w3.org/2000/svg" viewBox="0 0 992.13 992.13"><defs><style>.cls-1{fill:#8c88a0;}.cls-1,.cls-2,.cls-3,.cls-4{stroke-width:0px;}.cls-2{fill:#beb4ec;}.cls-3{fill:#3f3861;}.cls-4{fill:#685da0;}</style></defs><path class="cls-1" d="m563.66,685.02c3.36-28.86,1.42-58.09-5.71-86.25l39.43-42.44c-8.53-24.65-19.92-48.21-33.93-70.22l-62.51,8c-17.8-19.07-38.49-35.21-61.31-47.85l-2.36-75.19c-21.5-11.04-44.23-19.51-67.7-25.25l-51.41,67.78c-20.2-.35-40.38,1.61-60.15,5.83l-64.64-62.41c-21.82,8.36-42.57,19.29-61.8,32.56l11.27,85.34c-17.28,14.33-32.64,30.84-45.69,49.1l-74.62,1.58c-9.7,23.34-16.64,47.74-20.68,72.69l50.45,39.74c-3.56,28.46-1.98,57.33,4.66,85.24l-39.37,42.25c8.85,24.7,20.55,48.27,34.86,70.26l59.63-7.5c18.16,20.15,39.49,37.18,63.15,50.44l2.17,69.59c22.18,11.25,45.63,19.78,69.86,25.42l46.93-62.11c22,.63,43.99-1.47,65.48-6.25l59.02,56.99c22.65-8.49,44.16-19.76,64.03-33.55l-10.32-78.06c18.52-15.28,34.84-33.06,48.49-52.82l69.06-1.47c10.11-23.61,17.38-48.35,21.65-73.68l-47.96-37.76Zm-256.92,137.52c-89.91,0-162.79-72.88-162.79-162.79s72.88-162.79,162.79-162.79,162.79,72.88,162.79,162.79-72.88,162.79-162.79,162.79Z"/><path class="cls-4" d="m942.45,653.45l47.81-24.16c-.7-13.57-3.07-26.99-7.04-39.98l-50.93-9.31c-4.97-12.23-11.53-23.76-19.52-34.27l13.06-41.47c-11.58-9.61-24.22-17.87-37.68-24.6l-32.18,20.62c-15.66-7.17-32.45-11.56-49.62-12.95l-16.81-29.4c-15.76.36-31.43,2.53-46.7,6.45l-6.87,34.27c-14.85,6.31-28.58,14.99-40.65,25.7l-40.21-11.42c-10.55,10.14-19.82,21.54-27.61,33.93l26.66,37.2c-4.49,12-7.43,24.52-8.74,37.26l-43.56,22.1c.63,14.06,3.06,27.98,7.22,41.43l46.59,8.53c5.32,13.05,12.44,25.3,21.13,36.38l-12.11,38.36c11.66,9.9,24.44,18.41,38.08,25.36l30.62-19.52c15.94,7.11,33,11.34,50.42,12.51l16.83,29.38c15.68-.24,31.28-2.23,46.51-5.94l7.2-35.95c14.16-6.33,27.27-14.81,38.84-25.13l43.47,12.39c10.29-9.85,19.38-20.87,27.09-32.84l-29.21-40.69c3.98-11.07,6.64-22.58,7.92-34.27Zm-146.4,57.71c-41.01,0-74.25-33.24-74.25-74.25s33.24-74.25,74.25-74.25,74.25,33.24,74.25,74.25-33.24,74.25-74.25,74.25Z"/><path class="cls-2" d="m831.74,265.2l58.81-33.83c-1.47-17.57-5.04-34.9-10.62-51.62l-64.22-9.73c-6.76-15.53-15.53-30.11-26.07-43.37l14.57-54.36c-14.87-11.89-31.08-22.02-48.28-30.18l-39.39,28.18c-19.9-8.56-41.19-13.47-62.83-14.49l-22.37-37.39c-19.75,1.22-39.29,4.76-58.22,10.53l-7.06,44.78c-18.4,8.95-35.21,20.86-49.77,35.24l-50.89-13.02c-12.77,13.72-23.84,28.93-32.98,45.3l35.17,47.05c-5.08,15.81-8.19,32.18-9.27,48.74l-53.67,30.81c1.42,18.19,5.08,36.14,10.89,53.44l58.76,8.89c7.19,16.63,16.66,32.19,28.12,46.23l-13.42,50.36c14.96,12.29,31.33,22.76,48.76,31.19l37.47-26.9c20.22,8.47,41.82,13.18,63.73,13.9l22.43,37.47c19.65-1.03,39.11-4.34,57.99-9.86l7.46-46.97c17.58-8.9,33.65-20.51,47.6-34.42l54.99,14.07c12.46-13.28,23.33-27.98,32.37-43.79l-38.42-51.41c4.49-14.57,7.31-29.61,8.4-44.82Zm-184.19,86.97c-57.38,0-103.9-45.56-103.9-101.77s46.52-101.77,103.9-101.77,103.9,45.56,103.9,101.77-46.52,101.77-103.9,101.77Z"/><path class="cls-3" d="m417.38,237.21c1.7-10.57,2.12-21.31,1.26-31.99l-36.73-15.5c-1.73-10.19-4.78-20.12-9.06-29.53l16.6-29.74c-7.11-9.26-15.27-17.68-24.29-25.09l-27.53,10.55c-10.56-8.07-22.46-14.19-35.17-18.09l-7.81-25.42c-11.91-2.28-24.05-3.19-36.18-2.68l-10.76,25.21c-12.22,2.44-23.95,6.87-34.73,13.12l-28.33-15.4c-9.6,6.11-18.43,13.37-26.27,21.61l13.97,33.01c-5.33,8.53-9.58,17.69-12.64,27.26l-36.35,9.92c-1.85,10.94-2.31,22.06-1.37,33.11l33.6,14.18c1.84,10.9,5.18,21.49,9.92,31.47l-15.35,27.57c7.12,9.53,15.33,18.18,24.47,25.8l26.16-10.09c10.77,8.07,22.91,14.13,35.83,17.9l7.82,25.46c11.81,2.39,23.86,3.41,35.91,3.05l11.29-26.48c11.69-2.55,22.9-6.93,33.22-12.98l30.62,16.66c9.37-5.94,18.01-12.97,25.72-20.94l-15.23-36.08c4.8-7.89,8.68-16.3,11.56-25.08l39.83-10.78Zm-147.77,41.75c-37.33,0-67.59-30.26-67.59-67.59s30.26-67.59,67.59-67.59,67.59,30.26,67.59,67.59-30.26,67.59-67.59,67.59Z"/></svg>