<?xml version="1.0" encoding="UTF-8"?><svg id="Layer_1" xmlns="http://www.w3.org/2000/svg" viewBox="0 0 1303.94 1303.94"><defs><style>.cls-1{fill:#d3e6f8;}.cls-1,.cls-2{stroke-width:0px;}.cls-3{fill:none;}.cls-3,.cls-4,.cls-5,.cls-6,.cls-7,.cls-8{stroke:#3b3f52;stroke-linecap:round;stroke-linejoin:round;stroke-width:12px;}.cls-4,.cls-2{fill:#7babf1;}.cls-5{fill:#e75356;}.cls-6{fill:#a4cff2;}.cls-7{fill:#fd919e;}.cls-8{fill:#f8faff;}</style></defs><path class="cls-3" d="m441.26,408.53s-43.92-.63-51.45,30.74v25.1s-8.78-1.25-12.55,14.43c0,0,4.39,24.47,10.67,30.74l3.76,16.94s16.94,43.29,53.96,42.66"/><path class="cls-3" d="m446.28,408.53s43.92-.63,51.45,30.74v25.1s8.78-1.25,12.55,14.43c0,0-4.39,24.47-10.67,30.74l-3.76,16.94s-16.94,43.29-53.96,42.66"/><path class="cls-3" d="m647.57,335.3s-43.92-.63-51.45,30.74v25.1s-8.78-1.25-12.55,14.43c0,0,4.39,24.47,10.67,30.74l3.76,16.94s16.94,43.29,53.96,42.66"/><path class="cls-3" d="m652.59,335.3s43.92-.63,51.45,30.74v25.1s8.78-1.25,12.55,14.43c0,0-4.39,24.47-10.67,30.74l-3.76,16.94s-16.94,43.29-53.96,42.66"/><path class="cls-3" d="m858.99,408.53s-43.92-.63-51.45,30.74v25.1s-8.78-1.25-12.55,14.43c0,0,4.39,24.47,10.67,30.74l3.76,16.94s16.94,43.29,53.96,42.66"/><path class="cls-3" d="m864.01,408.53s43.92-.63,51.45,30.74v25.1s8.78-1.25,12.55,14.43c0,0-4.39,24.47-10.67,30.74l-3.76,16.94s-16.94,43.29-53.96,42.66"/><polyline class="cls-3" points="617.77 484.12 617.77 518.41 546 545.24"/><polyline class="cls-3" points="685.05 484.12 685.05 518.41 756.82 545.24"/><path class="cls-3" d="m410.24,555.02v34.29l-80.83,24.73s-36.02,9.45-36.02,50.79v67.32"/><path class="cls-3" d="m478.01,555.02v34.29s80.83,24.73,80.83,24.73c0,0,36.02,9.45,36.02,50.79v67.32"/><line class="cls-3" x1="359.53" y1="684.76" x2="359.53" y2="733.92"/><line class="cls-3" x1="529.61" y1="684.76" x2="529.61" y2="733.92"/><path class="cls-3" d="m825.73,555.02v34.29l-80.83,24.73s-36.02,9.45-36.02,50.79v67.32"/><path class="cls-3" d="m893.5,555.02v34.29s80.83,24.73,80.83,24.73c0,0,36.02,9.45,36.02,50.79v67.32"/><line class="cls-3" x1="775.02" y1="684.76" x2="775.02" y2="733.92"/><line class="cls-3" x1="945.09" y1="684.76" x2="945.09" y2="733.92"/><rect class="cls-8" x="484.21" y="731.05" width="335.33" height="227.49" rx="19.84" ry="19.84"/><polygon class="cls-5" points="560.95 713.86 578.15 682.41 595.35 713.86 626.8 731.05 595.35 748.25 578.15 779.7 560.95 748.25 529.51 731.05 560.95 713.86"/><polygon class="cls-5" points="531.01 864.4 542.15 844.03 553.29 864.4 573.66 875.54 553.29 886.68 542.15 907.05 531.01 886.68 510.64 875.54 531.01 864.4"/><polyline class="cls-3" points="607.13 800.66 578.15 829.63 607.81 859.29"/><polyline class="cls-3" points="691.64 859.29 720.61 830.31 690.96 800.66"/><line class="cls-3" x1="645.53" y1="859.29" x2="670.21" y2="800.66"/><line class="cls-7" x1="486.09" y1="926.49" x2="819.53" y2="926.49"/><rect class="cls-4" x="619.47" y="962.66" width="64.29" height="38.83"/><path class="cls-6" d="m599.19,1007.41h108.96c9.39,0,17.01,7.62,17.01,17.01v21.82h-142.98v-21.82c0-9.39,7.62-17.01,17.01-17.01Z"/><path class="cls-2" d="m686.33,1014.33h20.68c6.26,0,11.34,5.08,11.34,11.34v13.63h-32.02v-24.97h0Z"/><path class="cls-1" d="m775.79,932.48h37.74v7.41c0,6.97-5.66,12.63-12.63,12.63h-25.11v-20.04h0Z"/><path class="cls-1" d="m796.58,737.04l-20.99.02v183.42h37.95v-166.77c.78-10.84-6-17.45-16.57-16.67-.11,0-.27-.01-.38-.01Z"/><polygon class="cls-5" points="752.5 782.11 763.64 761.74 774.79 782.11 795.16 793.25 774.79 804.39 763.64 824.76 752.5 804.39 732.13 793.25 752.5 782.11"/><path class="cls-3" d="m305.31,1077.37l-108.55-150.77s-28.65-36.94-22.62-104.79v-175.65s3.39-33.92,33.55-33.92c0,0,29.4-1.88,33.92,34.3v163.21s-5.28,38.82,36.18,74.25l51.26,54.28"/><path class="cls-3" d="m256.31,860.05s-8.29-41.63,17.71-50.3c0,0,19.37-9.46,52.74,17.34,1.61,1.29,3.31,2.47,5.07,3.54,12.51,7.62,63.83,40.63,84.41,81.27.29.57,9.93,22.36,10.43,25.63l30.15,139.84"/><path class="cls-3" d="m998.62,1077.37l108.55-150.77s28.65-36.94,22.62-104.79v-175.65s-3.39-33.92-33.55-33.92c0,0-29.4-1.88-33.92,34.3v163.21s5.28,38.82-36.18,74.25l-51.26,54.28"/><path class="cls-3" d="m1047.62,860.05s8.29-41.63-17.71-50.3c0,0-19.37-9.46-52.74,17.34-1.61,1.29-3.31,2.47-5.07,3.54-12.51,7.62-63.83,40.63-84.41,81.27-.29.57-9.93,22.36-10.43,25.63l-30.15,139.84"/></svg>