<?xml version="1.0" encoding="UTF-8"?><svg id="Layer_1" xmlns="http://www.w3.org/2000/svg" viewBox="0 0 1303.94 1303.94"><defs><style>.cls-1{fill:#fbe7a1;}.cls-1,.cls-2,.cls-3,.cls-4,.cls-5{stroke-width:0px;}.cls-6{fill:none;stroke:#3b3f52;stroke-linecap:round;stroke-linejoin:round;stroke-width:12px;}.cls-7{opacity:.35;}.cls-2{fill:#2f4c59;}.cls-3{fill:#fff;}.cls-4{fill:#b3b7bc;}.cls-5{fill:#e75356;}</style></defs><path class="cls-6" d="m1137.13,1077.66v-23.71c5.28-87.46,26.02-171.8,52.5-223.08,46.88-86.02,27.4-193.1-46.77-257.1-41.82-34.52-94.39-53.34-148.62-53.21-52.48-.12-103.22,18.78-142.83,53.21-2.76,2.39-5.42,4.87-8.03,7.38-4.16,3.85-8.14,7.81-11.92,11.89-17.55,19.28-30.29,42.44-37.18,67.58l-.07.26c-4.34,15.28-6.54,31.08-6.55,46.97v59.2c.09,6.05-.78,12.08-2.59,17.85-10.2,30.37-22.22,60.1-36.01,89.03-2.54,5.48-1.66,11.93,2.25,16.53,3.16,3.54,7.71,5.52,12.46,5.4h12.65c4.67,1.8,7.74,6.29,7.72,11.29l-.08,7.91c-.05,8.38,2.95,16.5,8.44,22.83,3.32,3.76,5.24,8.56,5.43,13.57,0,1.32,0,38.05,0,38.74v-.54s0,.08,0,.12c-.42,15.65,11.93,28.69,27.58,29.11h72.42c14.49,0,26.23,11.74,26.23,26.23v32.53"/><path class="cls-3" d="m1005.48,882.24l4.41-12.41c1.76-4.94,5.53-8.91,10.38-10.92l13.56-5.62c4.85-2.01,10.32-1.87,15.06.38l11.89,5.65c7.09,3.37,15.53,1.91,21.07-3.64l9.46-9.46c5.55-5.55,7-13.99,3.64-21.07l-5.65-11.89c-2.25-4.74-2.39-10.21-.38-15.06l5.62-13.56c2.01-4.85,5.98-8.62,10.92-10.38l12.41-4.41c7.39-2.63,12.33-9.63,12.33-17.47v-13.38c0-7.85-4.94-14.84-12.33-17.47l-12.41-4.41c-4.94-1.76-8.91-5.53-10.92-10.38l-5.62-13.56c-2.01-4.85-1.87-10.32.38-15.06l5.65-11.89c3.37-7.09,1.91-15.53-3.64-21.07l-9.46-9.46c-5.55-5.55-13.99-7-21.07-3.64l-11.89,5.65c-4.74,2.25-10.21,2.39-15.06.38l-13.56-5.62c-4.85-2.01-8.62-5.98-10.38-10.92l-4.41-12.41c-2.63-7.39-9.63-12.33-17.47-12.33h-13.38c-7.85,0-14.84,4.94-17.47,12.33l-4.41,12.41c-1.76,4.94-5.53,8.91-10.38,10.92l-13.56,5.62c-4.85,2.01-10.32,1.87-15.06-.38l-11.89-5.65c-7.09-3.37-15.53-1.91-21.07,3.64l-9.46,9.46c-5.55,5.55-7,13.99-3.64,21.07l5.65,11.89c2.25,4.74,2.39,10.21.38,15.06l-5.62,13.56c-2.01,4.85-5.98,8.62-10.92,10.38l-12.41,4.41c-7.39,2.63-12.33,9.63-12.33,17.47v13.38c0,7.85,4.94,14.84,12.33,17.47l12.41,4.41c4.94,1.76,8.91,5.53,10.92,10.38l5.62,13.56c2.01,4.85,1.87,10.32-.38,15.06l-5.65,11.89c-3.37,7.09-1.91,15.53,3.64,21.07l9.46,9.46c5.55,5.55,13.99,7,21.07,3.64l11.89-5.65c4.74-2.25,10.21-2.39,15.06-.38l13.37,5.54c4.96,2.05,8.79,6.16,10.49,11.25l3.95,11.82c2.53,7.56,9.61,12.66,17.59,12.66h13.81c7.85,0,14.84-4.94,17.47-12.33Z"/><circle class="cls-3" cx="981.32" cy="745.69" r="31.78"/><path class="cls-5" d="m1087.24,757.77v-28.14l-23.13-8.22-8.48-20.48,10.54-22.17-19.9-19.9-22.17,10.54-20.48-8.48-8.22-23.13h-28.14l-8.22,23.13-20.48,8.48-22.17-10.54-19.9,19.9,10.54,22.17-8.48,20.48-23.13,8.22v28.14l23.13,8.22,8.48,20.48-10.54,22.17,19.9,19.9,22.17-10.54,20.48,8.48,7.73,23.13h28.64l8.22-23.13,20.48-8.48,22.17,10.54,19.9-19.9-10.54-22.17,8.48-20.48,23.13-8.22Zm-105.92,17.7c-17.55,0-31.78-14.23-31.78-31.78s14.23-31.78,31.78-31.78,31.78,14.23,31.78,31.78-14.23,31.78-31.78,31.78Z"/><circle class="cls-6" cx="981.32" cy="744.78" r="31.78"/><path class="cls-6" d="m995.39,848.52l8.22-23.13,20.48-8.48,22.17,10.54,19.9-19.9-10.54-22.17,8.48-20.48,23.13-8.22v-28.14l-23.13-8.22-8.48-20.48,10.54-22.17-19.9-19.9-22.17,10.54-20.48-8.48-8.22-23.13h-28.14l-8.22,23.13-20.48,8.48-22.17-10.54-19.9,19.9,10.54,22.17-8.48,20.48-23.13,8.22v28.14l23.13,8.22,8.48,20.48-10.54,22.17,19.9,19.9,22.17-10.54,20.48,8.48,7.73,23.13h28.64Z"/><path class="cls-6" d="m346.66,1077.66v-32.53c0-14.49,11.74-26.23,26.23-26.23h72.42c15.65-.42,28-13.45,27.58-29.11,0-.04,0-.08,0-.12v.54c0-.7,0-37.42,0-38.74.19-5.02,2.11-9.81,5.43-13.57,5.49-6.33,8.49-14.45,8.44-22.83l-.08-7.91c-.02-5,3.05-9.49,7.72-11.29h12.65c4.74.12,9.3-1.86,12.46-5.4,3.92-4.6,4.79-11.05,2.25-16.53-13.79-28.92-25.81-58.65-36.01-89.03-1.81-5.77-2.68-11.8-2.57-17.85v-59.2c-.02-15.88-2.22-31.69-6.56-46.97l-.07-.26c-6.9-25.14-19.64-48.3-37.18-67.58-3.78-4.08-7.76-8.04-11.92-11.89-2.61-2.51-5.27-4.99-8.03-7.38-39.61-34.43-90.35-53.33-142.83-53.21-54.23-.14-106.8,18.69-148.62,53.21-74.17,64.01-93.64,171.08-46.77,257.1,26.49,51.28,47.22,135.62,52.5,223.08v23.71"/><path class="cls-6" d="m165.81,697.95c1.63-3.61,3.44-7.1,5.41-10.48,2.69-4.61,5.7-9,8.98-13.14,1.73-2.19,3.54-4.3,5.42-6.35"/><path class="cls-6" d="m206.93,649.86c2.53-1.66,5.12-3.23,7.78-4.69,4.89-2.69,9.99-5.02,15.26-6.97,4.59-1.7,9.31-3.11,14.13-4.21,4.82-1.1,9.74-1.89,14.74-2.35,8.8-.81,17.83-.6,26.95.74,62.07,9.09,105.03,66.78,95.94,128.85-9.09,62.07-66.78,105.03-128.85,95.94-62.07-9.09-105.03-66.78-95.94-128.85"/><path class="cls-4" d="m653.24,585.39c0,8.16-3.31,15.54-8.65,20.89-5.35,5.35-12.73,8.65-20.89,8.65s-15.54-3.31-20.89-8.65c-5.35-5.35-8.65-12.73-8.65-20.89s3.31-15.54,8.65-20.89c5.35-5.35,12.73-8.65,20.89-8.65s15.54,3.31,20.89,8.65c5.35,5.35,8.65,12.73,8.65,20.89Z"/><path class="cls-2" d="m623.7,619c-9.27,0-17.67-3.77-23.75-9.85-6.09-6.09-9.85-14.49-9.85-23.75s3.77-17.67,9.85-23.75c6.09-6.09,14.49-9.86,23.75-9.86s17.67,3.77,23.75,9.86c6.09,6.09,9.86,14.49,9.86,23.75s-3.77,17.67-9.86,23.75c-6.09,6.09-14.49,9.85-23.75,9.85Zm0-59.08c-7.02,0-13.39,2.86-18,7.47-4.61,4.61-7.47,10.98-7.47,18.01s2.86,13.39,7.47,18c4.61,4.61,10.98,7.47,18,7.47s13.39-2.86,18.01-7.47c4.61-4.61,7.47-10.98,7.47-18s-2.86-13.39-7.47-18.01c-4.61-4.61-10.98-7.47-18.01-7.47Z"/><g class="cls-7"><path class="cls-2" d="m653.24,585.39c0,8.16-3.31,15.54-8.65,20.89-5.35,5.35-12.73,8.65-20.89,8.65s-15.54-3.31-20.89-8.65c-5.35-5.35-8.65-12.73-8.65-20.89s3.31-15.54,8.65-20.89c5.35-5.35,12.73-8.65,20.89-8.65s15.54,3.31,20.89,8.65c5.35,5.35,8.65,12.73,8.65,20.89Z"/><path class="cls-2" d="m623.7,619c-9.27,0-17.67-3.77-23.75-9.85-6.09-6.09-9.85-14.49-9.85-23.75s3.77-17.67,9.85-23.75c6.09-6.09,14.49-9.86,23.75-9.86s17.67,3.77,23.75,9.86c6.09,6.09,9.86,14.49,9.86,23.75s-3.77,17.67-9.86,23.75c-6.09,6.09-14.49,9.85-23.75,9.85Zm0-59.08c-7.02,0-13.39,2.86-18,7.47-4.61,4.61-7.47,10.98-7.47,18.01s2.86,13.39,7.47,18c4.61,4.61,10.98,7.47,18,7.47s13.39-2.86,18.01-7.47c4.61-4.61,7.47-10.98,7.47-18s-2.86-13.39-7.47-18.01c-4.61-4.61-10.98-7.47-18.01-7.47Z"/></g><path class="cls-1" d="m703.31,437.77c0-23-9.75-43.72-25.34-58.25-15.59-14.53-37.03-22.88-60.39-21.13-19.77,1.48-37.57,10.3-50.69,23.7-13.13,13.4-21.58,31.38-22.67,51.18-.67,12.1,1.37,23.64,5.56,34.1,4.19,10.45,10.53,19.81,18.48,27.52,7.06,6.85,12.47,15.06,16.12,24.01,3.65,8.95,5.53,18.65,5.53,28.49v1.63h67.59v-1.64c0-10.07,2.1-19.87,5.98-28.93,3.88-9.06,9.53-17.39,16.64-24.52,7.17-7.2,12.97-15.76,16.97-25.26,4.01-9.5,6.22-19.94,6.22-30.9Z"/><path class="cls-2" d="m657.5,553.08h-67.59c-1.12,0-2.14-.46-2.88-1.19s-1.19-1.75-1.19-2.88v-1.63c0-9.46-1.86-18.71-5.34-27.16-3.48-8.46-8.58-16.12-15.07-22.41-8.7-8.44-15.35-18.56-19.66-29.61-4.31-11.05-6.28-23.02-5.61-35.15,1.15-20.88,10.01-39.78,23.8-53.85,13.78-14.07,32.49-23.31,53.32-24.87,11.8-.88,23.32.64,34.05,4.38,10.73,3.74,20.66,9.71,29.29,17.71,8.51,7.89,15.2,17.43,19.77,27.9s7.01,21.85,7.01,33.45-2.16,21.95-6.29,31.95c-4.13,10-10.22,19.19-18.09,27.08-6.91,6.94-12.27,14.9-15.9,23.47-3.63,8.57-5.53,17.74-5.53,27.12v1.64c0,1.12-.46,2.14-1.19,2.88s-1.75,1.19-2.88,1.19Zm-63.56-8.13h59.54c.31-10.01,2.57-19.78,6.59-28.9,4.02-9.12,9.8-17.59,17.18-24.99,7.1-7.13,12.6-15.42,16.33-24.45,3.73-9.03,5.68-18.78,5.68-28.84s-2.2-20.76-6.33-30.2c-4.12-9.45-10.17-18.06-17.85-25.19-7.79-7.23-16.76-12.61-26.45-15.99-9.69-3.38-20.09-4.75-30.75-3.95-18.8,1.41-35.69,9.75-48.13,22.44-12.44,12.7-20.44,29.76-21.48,48.6-.6,10.96,1.17,21.77,5.07,31.74,3.89,9.97,9.9,19.11,17.75,26.73,6.99,6.78,12.55,14.97,16.43,24,3.89,9.02,6.1,18.88,6.41,28.98Z"/><path class="cls-4" d="m656.7,558.64h-66c-2.09,0-3.98-.85-5.34-2.21s-2.21-3.26-2.21-5.34v-1.26c0-2.09.85-3.98,2.21-5.34,1.37-1.37,3.26-2.21,5.34-2.21h66c2.09,0,3.98.85,5.34,2.21,1.37,1.37,2.21,3.26,2.21,5.34v1.26c0,2.09-.85,3.98-2.21,5.34s-3.26,2.21-5.34,2.21Z"/><path class="cls-2" d="m656.07,562.71h-64.74c-3.38,0-6.44-1.37-8.66-3.59-2.22-2.22-3.59-5.28-3.59-8.66s1.37-6.44,3.59-8.66c2.22-2.22,5.28-3.59,8.66-3.59h64.74c3.38,0,6.44,1.37,8.66,3.59,2.22,2.22,3.59,5.28,3.59,8.66s-1.37,6.44-3.59,8.66c-2.22,2.22-5.28,3.59-8.66,3.59Zm-64.74-16.38c-1.14,0-2.17.46-2.91,1.21s-1.21,1.78-1.21,2.91.46,2.17,1.21,2.91c.75.75,1.78,1.21,2.91,1.21h64.74c1.14,0,2.17-.46,2.91-1.21.75-.75,1.21-1.78,1.21-2.91s-.46-2.17-1.21-2.91-1.78-1.21-2.91-1.21h-64.74Z"/><path class="cls-4" d="m656.7,575.02h-66c-2.09,0-3.98-.85-5.34-2.21-1.37-1.37-2.21-3.26-2.21-5.34v-1.26c0-2.09.85-3.98,2.21-5.34,1.37-1.37,3.26-2.21,5.34-2.21h66c2.09,0,3.98.85,5.34,2.21,1.37,1.37,2.21,3.26,2.21,5.34v1.26c0,2.09-.85,3.98-2.21,5.34-1.37,1.37-3.26,2.21-5.34,2.21Z"/><path class="cls-2" d="m656.07,579.09h-64.74c-3.38,0-6.44-1.37-8.66-3.59-2.22-2.22-3.59-5.28-3.59-8.66s1.37-6.44,3.59-8.66,5.28-3.59,8.66-3.59h64.74c3.38,0,6.44,1.37,8.66,3.59,2.22,2.22,3.59,5.28,3.59,8.66s-1.37,6.44-3.59,8.66c-2.22,2.22-5.28,3.59-8.66,3.59Zm-64.74-16.38c-1.14,0-2.17.46-2.91,1.21s-1.21,1.78-1.21,2.91.46,2.17,1.21,2.91,1.78,1.21,2.91,1.21h64.74c1.14,0,2.17-.46,2.91-1.21s1.21-1.78,1.21-2.91-.46-2.17-1.21-2.91c-.75-.75-1.78-1.21-2.91-1.21h-64.74Z"/><path class="cls-4" d="m656.7,591.4h-66c-2.09,0-3.98-.85-5.34-2.21s-2.21-3.26-2.21-5.34v-1.26c0-2.09.85-3.98,2.21-5.34s3.26-2.21,5.34-2.21h66c2.09,0,3.98.85,5.34,2.21s2.21,3.26,2.21,5.34v1.26c0,2.09-.85,3.98-2.21,5.34-1.37,1.37-3.26,2.21-5.34,2.21Z"/><path class="cls-2" d="m656.07,595.46h-64.74c-3.38,0-6.44-1.37-8.66-3.59-2.22-2.22-3.59-5.28-3.59-8.66s1.37-6.44,3.59-8.66,5.28-3.59,8.66-3.59h64.74c3.38,0,6.44,1.37,8.66,3.59,2.22,2.22,3.59,5.28,3.59,8.66s-1.37,6.44-3.59,8.66c-2.22,2.22-5.28,3.59-8.66,3.59Zm-64.74-16.38c-1.14,0-2.17.46-2.91,1.21s-1.21,1.78-1.21,2.91.46,2.17,1.21,2.91,1.78,1.21,2.91,1.21h64.74c1.14,0,2.17-.46,2.91-1.21s1.21-1.78,1.21-2.91-.46-2.17-1.21-2.91-1.78-1.21-2.91-1.21h-64.74Z"/><g class="cls-7"><path class="cls-2" d="m608.68,508.39c-9.76-16.52-20.65-32.3-29.48-48.63-8.82-16.34-15.58-33.23-17.09-52.01-.23-3.46-.28-7.05-.12-10.69.17-3.64.56-7.31,1.2-10.92-5.5,6.44-10,13.75-13.25,21.69-3.25,7.94-5.25,16.5-5.74,25.43-.67,12.1,1.37,23.64,5.56,34.1,4.19,10.45,10.53,19.81,18.48,27.52,6.46,6.27,11.54,13.68,15.15,21.76,3.61,8.08,5.74,16.83,6.32,25.78-1.88.37-3.52,1.39-4.7,2.8-1.18,1.42-1.88,3.24-1.88,5.22,0,2.26.92,4.31,2.4,5.79,1.48,1.48,3.53,2.4,5.79,2.4-2.26,0-4.31.92-5.79,2.4-1.48,1.48-2.4,3.53-2.4,5.79s.92,4.31,2.4,5.79,3.53,2.4,5.79,2.4c-2.26,0-4.31.92-5.79,2.4s-2.4,3.53-2.4,5.79.92,4.31,2.4,5.79c1.48,1.48,3.53,2.4,5.79,2.4h31.08c.04-14.47.53-28.77-.95-42.68-1.48-13.91-4.94-27.43-12.78-40.32Z"/><path class="cls-2" d="m622.41,595.46h-31.08c-3.38,0-6.44-1.37-8.66-3.59-2.22-2.22-3.59-5.28-3.59-8.66,0-1.57.3-3.08.84-4.46s1.33-2.64,2.3-3.73c-.98-1.09-1.76-2.35-2.3-3.73s-.84-2.89-.84-4.46.3-3.08.84-4.46c.54-1.38,1.33-2.64,2.3-3.73-.98-1.09-1.76-2.35-2.3-3.73-.54-1.38-.84-2.89-.84-4.46,0-2.27.63-4.43,1.74-6.28,1.11-1.85,2.69-3.4,4.6-4.45-.85-8.11-3.04-15.86-6.42-22.95-3.38-7.09-7.95-13.52-13.57-18.98-8.7-8.44-15.35-18.56-19.66-29.61-4.31-11.05-6.28-23.02-5.61-35.15.5-9.16,2.48-18.02,5.84-26.35,3.36-8.33,8.1-16.14,14.12-23.19.6-.7,1.39-1.15,2.24-1.34s1.76-.09,2.59.3c.83.39,1.48,1.04,1.87,1.81.4.77.55,1.68.39,2.58-.57,3.19-.95,6.57-1.13,10.04-.17,3.47-.15,7.02.09,10.57,1.16,14.52,5.58,27.88,11.75,40.84,6.17,12.96,14.08,25.53,22.21,38.45,2,3.17,4.03,6.4,6.05,9.66,2.02,3.26,4.03,6.56,5.99,9.87,7.41,12.19,11.06,24.98,12.83,37.97,1.77,12.99,1.65,26.17,1.54,39.13-.01,1.33-.02,2.66-.03,4,0,1.33-.02,2.67-.02,4.01,0,1.12-.46,2.13-1.2,2.87s-1.75,1.19-2.87,1.19Zm-31.08-16.38c-1.14,0-2.17.46-2.91,1.21s-1.21,1.78-1.21,2.91.46,2.17,1.21,2.91,1.78,1.21,2.91,1.21h27.04c0-.67,0-1.33.02-2,0-.67.01-1.33.02-2,.11-12.97.22-25.57-1.4-37.74-1.62-12.17-4.98-23.89-11.8-35.09,0,0,0-.01-.01-.02s0-.02-.01-.02c-1.93-3.26-3.92-6.52-5.92-9.76-2-3.23-4.02-6.44-6.01-9.59-8.04-12.77-16.21-25.76-22.69-39.44-6.48-13.68-11.25-28.05-12.5-43.59-.08-1.21-.14-2.42-.18-3.63-.04-1.21-.05-2.41-.04-3.62-2.83,4.99-5.06,10.26-6.67,15.73-1.6,5.47-2.58,11.14-2.9,16.94-.6,10.96,1.17,21.77,5.07,31.74,3.89,9.97,9.9,19.11,17.75,26.73,6.69,6.49,12.05,14.2,15.89,22.7,3.84,8.5,6.17,17.81,6.8,27.5.07,1.02-.25,1.98-.83,2.74-.58.76-1.43,1.31-2.43,1.51-.96.19-1.79.71-2.37,1.43s-.93,1.63-.93,2.61c0,1.14.46,2.17,1.21,2.91.75.75,1.78,1.21,2.91,1.21s2.14.46,2.88,1.19c.74.74,1.19,1.75,1.19,2.88s-.46,2.14-1.19,2.88c-.74.74-1.75,1.19-2.88,1.19s-2.17.46-2.91,1.21-1.21,1.78-1.21,2.91.46,2.17,1.21,2.91,1.78,1.21,2.91,1.21,2.14.46,2.88,1.19c.74.74,1.19,1.75,1.19,2.88s-.46,2.14-1.19,2.88-1.75,1.19-2.88,1.19Z"/></g><path class="cls-3" d="m684.87,432.76c-4.84,5.59-12.76,7.6-21.65,6.32-8.89-1.28-18.76-5.85-27.49-13.41-8.73-7.55-14.68-16.66-17.23-25.27-2.55-8.62-1.71-16.74,3.13-22.34,4.84-5.59,12.76-7.6,21.65-6.32,8.89,1.28,18.76,5.85,27.49,13.41,8.73,7.55,14.68,16.66,17.23,25.27,2.55,8.62,1.71,16.74-3.13,22.34Z"/><path class="cls-2" d="m623.7,546.33c-1.12,0-2.14-.46-2.88-1.19s-1.19-1.75-1.19-2.88v-68.43c0-1.12.46-2.14,1.19-2.88s1.75-1.19,2.88-1.19,2.14.46,2.88,1.19,1.19,1.75,1.19,2.88v68.43c0,1.12-.46,2.14-1.19,2.88s-1.75,1.19-2.88,1.19Z"/><path class="cls-2" d="m622.53,477.91c-7.15,0-12.98-3.18-17.07-6.43-4.09-3.25-6.44-6.56-6.62-6.83-.64-.92-.85-2.02-.66-3.04.18-1.02.76-1.98,1.68-2.62.92-.64,2.02-.85,3.04-.66,1.02.18,1.98.76,2.62,1.68.03.04,1.78,2.49,4.78,4.92,3,2.43,7.23,4.85,12.24,4.85s9.19-2.41,12.14-4.84c2.96-2.43,4.67-4.86,4.71-4.91.64-.92,1.59-1.5,2.61-1.69s2.12.01,3.04.65c.92.63,1.5,1.58,1.7,2.6s0,2.11-.64,3.04c-.19.27-2.49,3.59-6.55,6.85s-9.85,6.44-17.01,6.44Z"/><path class="cls-2" d="m720.65,534.13c-.52,0-1.04-.1-1.53-.3-.49-.2-.95-.5-1.35-.89l-7.56-7.56-7.56-7.56c-.79-.79-1.19-1.83-1.19-2.87s.4-2.08,1.19-2.88c.79-.79,1.84-1.19,2.88-1.19s2.08.4,2.88,1.19l7.56,7.56,7.56,7.56c.79.79,1.19,1.83,1.19,2.87s-.4,2.08-1.19,2.88c-.4.4-.86.7-1.35.89s-1.01.3-1.53.3Z"/><path class="cls-2" d="m545.13,358.61c-.52,0-1.04-.1-1.53-.3-.49-.2-.95-.5-1.35-.89l-7.56-7.56-7.56-7.56c-.79-.79-1.19-1.84-1.19-2.88s.4-2.08,1.19-2.88c.79-.79,1.84-1.19,2.88-1.19s2.08.4,2.88,1.19l7.56,7.56,7.56,7.56c.79.79,1.19,1.84,1.19,2.88s-.4,2.08-1.19,2.88c-.4.4-.86.69-1.35.89-.49.2-1.01.3-1.53.3Z"/><path class="cls-2" d="m760.13,438.81h-21.38c-1.12,0-2.14-.46-2.88-1.19-.74-.74-1.19-1.75-1.19-2.88s.46-2.14,1.19-2.88,1.75-1.19,2.88-1.19h21.38c1.12,0,2.14.46,2.88,1.19s1.19,1.75,1.19,2.88-.45,2.14-1.19,2.88-1.75,1.19-2.88,1.19Z"/><path class="cls-2" d="m511.9,438.81h-21.38c-1.12,0-2.14-.46-2.88-1.19s-1.19-1.75-1.19-2.88.46-2.14,1.19-2.88,1.75-1.19,2.88-1.19h21.38c1.12,0,2.14.46,2.88,1.19.74.74,1.19,1.75,1.19,2.88s-.46,2.14-1.19,2.88c-.74.74-1.75,1.19-2.88,1.19Z"/><path class="cls-2" d="m705.53,358.61c-.52,0-1.04-.1-1.53-.3-.49-.2-.95-.5-1.35-.89-.79-.79-1.19-1.84-1.19-2.88s.4-2.08,1.19-2.87l7.56-7.56,7.56-7.56c.79-.79,1.84-1.19,2.88-1.19s2.08.4,2.88,1.19,1.19,1.84,1.19,2.88-.4,2.08-1.19,2.87l-7.56,7.56-7.56,7.56c-.4.4-.86.69-1.35.89-.49.2-1.01.3-1.53.3Z"/><path class="cls-2" d="m530.01,534.13c-.52,0-1.04-.1-1.53-.3s-.95-.5-1.35-.89c-.79-.79-1.19-1.84-1.19-2.88s.4-2.08,1.19-2.88l7.56-7.56,7.56-7.56c.79-.79,1.84-1.19,2.88-1.19s2.08.4,2.88,1.19c.79.79,1.19,1.84,1.19,2.88s-.4,2.08-1.19,2.88l-7.56,7.56-7.56,7.56c-.4.4-.86.7-1.35.89s-1.01.3-1.53.3Z"/><path class="cls-2" d="m625.33,325.39c-1.12,0-2.14-.46-2.88-1.19s-1.19-1.75-1.19-2.88v-21.38c0-1.12.46-2.14,1.19-2.88s1.75-1.19,2.88-1.19,2.14.46,2.88,1.19,1.19,1.75,1.19,2.88v21.38c0,1.12-.46,2.14-1.19,2.88s-1.75,1.19-2.88,1.19Z"/><path class="cls-2" d="m585.04,334.28c-.82,0-1.61-.25-2.28-.7-.67-.45-1.21-1.1-1.52-1.91l-2.04-5.3-2.04-5.3c-.4-1.05-.34-2.16.08-3.11.42-.95,1.21-1.74,2.25-2.15,1.05-.4,2.16-.34,3.11.08.95.42,1.74,1.21,2.14,2.25l2.04,5.29,2.04,5.29c.4,1.05.35,2.16-.08,3.11-.42.95-1.21,1.74-2.25,2.15-.24.09-.48.16-.73.21-.24.05-.49.07-.73.07Z"/><path class="cls-2" d="m738.11,488.84c-.28,0-.55-.03-.83-.09s-.55-.15-.82-.26l-3.99-1.77-3.99-1.77c-1.03-.46-1.77-1.28-2.15-2.25s-.38-2.08.08-3.11c.46-1.03,1.28-1.77,2.25-2.14.97-.37,2.08-.38,3.11.08l3.99,1.77,3.99,1.77c1.03.46,1.77,1.28,2.15,2.25.37.97.38,2.08-.08,3.11-.34.76-.88,1.36-1.53,1.78-.65.42-1.41.64-2.19.64Z"/><path class="cls-2" d="m521.01,392.55c-.28,0-.55-.03-.83-.09-.28-.06-.55-.15-.82-.26l-4.23-1.88-4.23-1.88c-1.03-.46-1.77-1.28-2.15-2.25s-.38-2.08.08-3.11c.46-1.03,1.28-1.77,2.25-2.15s2.09-.38,3.11.08l4.23,1.88,4.23,1.88c1.03.46,1.77,1.28,2.15,2.25s.38,2.09-.08,3.11c-.34.76-.88,1.36-1.53,1.78-.65.42-1.41.64-2.19.64Z"/><path class="cls-2" d="m731.32,397.96c-.82,0-1.61-.25-2.28-.7-.67-.45-1.21-1.1-1.52-1.91-.4-1.05-.34-2.16.08-3.11.42-.95,1.21-1.74,2.25-2.15l4.56-1.76,4.56-1.76c1.05-.4,2.16-.34,3.11.08.95.42,1.74,1.21,2.14,2.25.4,1.05.34,2.16-.08,3.11s-1.21,1.74-2.25,2.15l-4.56,1.76-4.56,1.76c-.24.09-.48.16-.73.21-.24.05-.49.07-.73.07Z"/><path class="cls-2" d="m510.21,483.19c-.82,0-1.61-.25-2.28-.7s-1.21-1.1-1.52-1.91c-.4-1.05-.35-2.16.08-3.11.42-.95,1.21-1.74,2.25-2.15l4.32-1.67,4.32-1.67c1.05-.4,2.16-.34,3.11.08.95.42,1.74,1.21,2.14,2.26.4,1.05.34,2.16-.08,3.11-.42.95-1.21,1.74-2.26,2.15l-4.32,1.66-4.32,1.66c-.24.09-.48.16-.73.21-.24.05-.49.07-.73.07Z"/><path class="cls-2" d="m672.14,333.26c-.28,0-.55-.03-.83-.09-.28-.06-.55-.15-.82-.26-1.03-.46-1.77-1.28-2.15-2.25-.37-.97-.38-2.09.08-3.11l1.6-3.61,1.6-3.61c.46-1.03,1.29-1.77,2.26-2.15.97-.37,2.08-.38,3.11.08,1.03.46,1.77,1.28,2.15,2.25.37.97.38,2.09-.08,3.11l-1.6,3.61-1.6,3.61c-.34.76-.88,1.36-1.53,1.78s-1.41.64-2.19.64Z"/><line class="cls-6" x1="252.23" y1="744.78" x2="287.91" y2="714.47"/><line class="cls-6" x1="252.23" y1="744.78" x2="287.91" y2="775.09"/><rect class="cls-3" x="766.22" y="720.54" width="81.35" height="50.96"/><line class="cls-6" x1="981.32" y1="744.78" x2="269.34" y2="744.78"/></svg>