<?xml version="1.0" encoding="UTF-8"?><svg id="Layer_1" xmlns="http://www.w3.org/2000/svg" viewBox="0 0 1303.94 1303.94"><defs><style>.cls-1{fill:#d3e6f8;}.cls-1,.cls-2{stroke-width:0px;}.cls-3{stroke:#7babf1;}.cls-3,.cls-4{fill:none;stroke-linecap:round;stroke-linejoin:round;stroke-width:12px;}.cls-4{stroke:#3b3f52;}.cls-2{fill:#e75356;}</style></defs><circle class="cls-4" cx="666.62" cy="322.87" r="65.29"/><polygon class="cls-4" points="1242.34 972.91 1139.22 972.91 1139.22 902.28 951.97 902.28 951.97 840.12 788.89 840.12 788.89 773.73 322.73 773.73 322.73 1076.78 1242.34 1076.78 1242.34 972.91"/><polygon class="cls-1" points="1237.15 979.44 1133.76 979.44 1133.76 908.74 946.01 908.74 946.01 846.52 782.5 846.52 782.5 780.06 315.1 780.06 315.1 1083.41 1237.15 1083.41 1237.15 979.44"/><path class="cls-1" d="m1231.51,979.24h-92.11c-3.12,0-5.64-2.53-5.64-5.64v-59.35c0-3.12-2.53-5.64-5.64-5.64h-176.46c-3.12,0-5.64-2.53-5.64-5.64v-50.87c0-3.12-2.53-5.64-5.64-5.64h-152.23c-3.12,0-5.64-2.53-5.64-5.64v-55.11c0-3.12-2.53-5.64-5.64-5.64h-456.12c-3.12,0-5.64,2.53-5.64,5.64v291.77c0,3.12,2.53,5.64,5.64,5.64h910.77c3.12,0,5.64-2.53,5.64-5.64v-92.59c0-3.12-2.53-5.64-5.64-5.64Z"/><polyline class="cls-2" points="153.43 264.11 47.02 264.11 107.7 324.79 49.66 382.84 228.19 382.84 228.19 345.02"/><path class="cls-4" d="m580.61,442.47l-70.63-2.83c-26.68-1.57-32.65,15.7-32.65,15.7l-14.44,26.05c-12.56,17.89-22.92,8.16-22.92,8.16-12.87-7.85-1.88-23.73-1.88-23.73l14.44-29.95c15.07-26.37,35.79-33.9,35.79-33.9l39.55-10.67c51.48-20.09,70.94-9.1,70.94-9.1,0,0,34.84,12.24,37.67,26.37,0,0,3.45,25.43-13.81,70.94l-23.23,63.41s-10.36,21.66,15.7,53.99l25.11,35.16s17.89,21.03,0,57.45l-18.21,45.2s-4.71,14.13-22.92,8.16c0,0-22.92-7.53-14.13-32.33l13.18-29.82s11.3-24.96-7.22-38.93l-88.32-73.01c-2.72-2.25-4.92-5.06-6.39-8.27-4.77-10.48-10.55-35.06,13.4-71.91l18.52-26.68"/><path class="cls-4" d="m471.37,571.81l-52.74,147.85s-9.73,18.01,4.71,24.7c0,0,10.99,9.83,26.05-14.34l74.4-112.69"/><path class="cls-4" d="m651.55,475.44l86.64,50.23s19.46,13.81,28.88,5.96c0,0,18.68-20.56-2.2-37.67l-106.42-76.59"/><circle class="cls-3" cx="951.97" cy="392.8" r="65.29"/><path class="cls-3" d="m991.26,532.41l67.53,20.9c25.68,7.42,25.54,25.69,25.54,25.69l4.92,29.38c5.87,21.06,18.88,15.34,18.88,15.34,14.75-3.1,9.69-21.74,9.69-21.74l-3.62-33.05c-5.41-29.89-22.42-43.9-22.42-43.9l-33.73-23.26c-41.83-36.12-63.84-32.25-63.84-32.25,0,0-36.93-.08-44.31,12.29,0,0-11.74,22.82-10.65,71.49l.74,67.53s2.54,23.88-32.81,45.66l-35.4,24.76s-23.89,13.86-19.17,54.15l2.08,48.69s-.27,14.89,18.88,15.34c0,0,24.12.54,24.1-25.77l-2.48-32.51s-2.33-27.3,19.79-34.29l107.62-39.36c3.31-1.21,6.33-3.13,8.78-5.67,8-8.29,21.64-29.53,11.36-72.26l-8.56-31.33"/><path class="cls-3" d="m1051.09,690.78l.38,156.98s3.17,20.22-12.68,21.71c0,0-13.64,5.6-19.78-22.21l-32.53-131.06"/><path class="cls-3" d="m919.32,516.4l-42.14,36.26s-10.75,12.79-45.75-9.5c0,0-26.53-18.36-31.47,1.47,0,0-9.34,19.72,30.84,32.9l28.18,11.3s25.81,12.24,55.48-15.38"/><polyline class="cls-4" points="147.72 264.11 41.3 264.11 101.98 324.79 43.94 382.84 222.47 382.84 222.47 345.02"/><rect class="cls-2" x="149.25" y="243.32" width="170.84" height="106.2"/><polyline class="cls-4" points="317.23 355.46 144.86 355.46 144.86 237.61 322.73 237.61 322.73 744.22"/></svg>