<?xml version="1.0" encoding="UTF-8"?><svg id="Layer_1" xmlns="http://www.w3.org/2000/svg" viewBox="0 0 198.43 85.04"><defs><style>.cls-1{fill:#7babf1;}.cls-1,.cls-2,.cls-3{stroke-width:0px;}.cls-2{fill:#3b3f52;}.cls-3{fill:#7c62c0;}</style></defs><path class="cls-1" d="m52.76,40.96h0l-15.9-9.9,22.67-13.07-2.38-1.64L14.4,41.19l-3.75-2.1L53.05,14.24l-2.74-1.74L8.43,37.21v-4.69L46.65,10.5l-2.42-1.78L8.05,29.77v-4.43L39.98,6.75l-2.56-1.74L5.17,23.83v14.89l9.43,5.16,16.02,9.56-23.04,13.28,2.38,1.64,42.76-24.85,3.75,2.1-42.39,24.85,2.74,1.74,41.88-24.7v4.69l-38.22,22.02,2.42,1.78,36.18-21.06v4.43l-31.93,18.59,2.56,1.74,32.25-18.82v-14.89l-9.2-5.03Zm-2.81,1.35l-3.71,2.14-15.84-9.67,3.65-2.1,15.9,9.63Zm-6.64,3.83l-3.55,2.04-15.84-9.67,3.64-2.1,15.75,9.72Zm-25.87-3.89l3.65-2.1,15.92,9.62-3.72,2.15-15.84-9.67Z"/><path class="cls-3" d="m88.26,40.1c-1.45,1.31-3.61,1.96-6.48,1.96s-5.29-.52-7.24-1.55v-3.43c2.26.99,4.56,1.48,6.89,1.48,3.08,0,4.63-1.18,4.63-3.53,0-.99-.25-1.73-.76-2.23-.51-.49-1.43-.95-2.77-1.38l-2.3-.64c-1.81-.52-3.19-1.31-4.12-2.37-.93-1.06-1.4-2.57-1.4-4.52,0-2.12.69-3.8,2.07-5.03,1.38-1.24,3.4-1.85,6.06-1.85,2.52,0,4.6.44,6.25,1.31v3.39c-1.91-.8-3.97-1.2-6.18-1.2-1.27,0-2.25.26-2.93.78-.68.52-1.02,1.26-1.02,2.23s.22,1.69.65,2.17c.44.48,1.25.89,2.46,1.22l2.26.71c2.07.59,3.61,1.4,4.61,2.42,1,1.02,1.5,2.55,1.5,4.57,0,2.35-.72,4.19-2.17,5.49Z"/><path class="cls-3" d="m114.45,42.02c-3.34,0-5.99-1.04-7.95-3.11-1.96-2.07-2.93-5.07-2.93-9.01v-.78c0-3.84,1.01-6.82,3.02-8.94,2.01-2.12,4.7-3.18,8.07-3.18s5.96,1.04,7.93,3.11c1.97,2.07,2.95,5.08,2.95,9.01v.78c0,3.84-1.01,6.82-3.02,8.94-2.01,2.12-4.7,3.18-8.07,3.18Zm.14-3.36c2.07,0,3.64-.75,4.72-2.24,1.07-1.5,1.61-3.52,1.61-6.06v-1.2c0-5.82-2.15-8.74-6.46-8.76-2.05,0-3.6.74-4.66,2.21-1.06,1.47-1.59,3.48-1.59,6.02v1.24c0,5.86,2.13,8.8,6.39,8.8Z"/><path class="cls-3" d="m145.08,41.63v-20.81h-6.96v-3.43h18.19v3.43h-6.89v20.81h-4.35Z"/><path class="cls-3" d="m179.84,42.02c-3.34,0-5.99-1.04-7.95-3.11-1.96-2.07-2.93-5.07-2.93-9.01v-.78c0-3.84,1.01-6.82,3.02-8.94,2.01-2.12,4.7-3.18,8.07-3.18s5.96,1.04,7.93,3.11c1.97,2.07,2.95,5.08,2.95,9.01v.78c0,3.84-1.01,6.82-3.02,8.94-2.01,2.12-4.7,3.18-8.07,3.18Zm.14-3.36c2.07,0,3.64-.75,4.72-2.24,1.07-1.5,1.61-3.52,1.61-6.06v-1.2c0-5.82-2.15-8.74-6.46-8.76-2.05,0-3.6.74-4.66,2.21-1.06,1.47-1.59,3.48-1.59,6.02v1.24c0,5.86,2.13,8.8,6.39,8.8Z"/><path class="cls-2" d="m74.48,67.94v-11.23h2.83l2.73,8.46h.05l2.73-8.46h2.82v11.23h-2.01v-8.72h-.07l-2.82,8.72h-1.65l-2.8-8.72h-.05v8.72h-1.77Z"/><path class="cls-2" d="m91.55,67.94v-11.23h7.01v1.59h-4.99v3.08h3.88v1.57h-3.88v3.4h5.09v1.59h-7.1Z"/><path class="cls-2" d="m104.22,67.94v-11.23h2.26l4.66,7.92h.05v-7.92h1.78v11.23h-2l-4.93-8.46h-.05v8.46h-1.78Z"/><path class="cls-2" d="m121.23,67.94v-9.64h-3.22v-1.59h8.43v1.59h-3.19v9.64h-2.01Z"/><path class="cls-2" d="m135.98,68.12c-1.55,0-2.78-.48-3.68-1.44-.91-.96-1.36-2.35-1.36-4.17v-.36c0-1.78.47-3.16,1.4-4.14.93-.98,2.18-1.47,3.74-1.47s2.76.48,3.67,1.44c.91.96,1.37,2.35,1.37,4.17v.36c0,1.78-.47,3.16-1.4,4.14-.93.98-2.18,1.47-3.74,1.47Zm.07-1.55c.96,0,1.69-.35,2.19-1.04.5-.69.74-1.63.74-2.81v-.56c0-2.7-1-4.05-3-4.06-.95,0-1.67.34-2.16,1.02-.49.68-.74,1.61-.74,2.79v.57c0,2.72.99,4.08,2.96,4.08Z"/><path class="cls-2" d="m146.47,67.94v-11.23h3.76c2.61,0,3.91,1.1,3.91,3.29,0,1.41-.68,2.37-2.03,2.9v.08l2.78,4.96h-2.19l-2.5-4.53h-1.72v4.53h-2.01Zm2.01-5.93h1.54c.72,0,1.24-.16,1.56-.47.32-.32.48-.81.48-1.47s-.16-1.09-.49-1.37c-.33-.28-.85-.43-1.57-.43h-1.52v3.75Z"/><path class="cls-2" d="m159.92,67.94v-11.23h2.03v11.23h-2.03Z"/><path class="cls-2" d="m167.93,67.94v-11.23h2.26l4.66,7.92h.05v-7.92h1.78v11.23h-2l-4.93-8.46h-.05v8.46h-1.78Z"/><path class="cls-2" d="m187.4,68.12c-1.71,0-3.04-.45-3.98-1.35-.94-.9-1.41-2.31-1.41-4.22v-.34c0-1.03.15-1.92.44-2.68s.7-1.35,1.23-1.78,1.1-.74,1.74-.93c.63-.2,1.33-.29,2.1-.29,1.22,0,2.25.22,3.08.65v1.6c-.95-.41-1.96-.62-3.03-.62-2.28,0-3.42,1.29-3.42,3.88v.51c0,1.29.23,2.27.7,2.95.46.68,1.31,1.02,2.55,1.02.63,0,1.21-.08,1.72-.25v-2.55h-2.08v-1.51h4.04v5.21c-1.14.46-2.36.69-3.67.69Z"/></svg>