<?xml version="1.0" encoding="UTF-8"?><svg id="Layer_1" xmlns="http://www.w3.org/2000/svg" viewBox="0 0 116.22 102.05"><defs><style>.cls-1{fill:#e75356;stroke-width:0px;}</style></defs><path class="cls-1" d="m64.98,13.09L47.54,1.95l-10.18,15.96c3.28,5.21,2.93,13.23-1.43,20.1l-.05.07c-2.71,4.28-6.57,7.46-10.81,8.99-2.37.86-4.7,1.13-6.86.85l-9.32,14.6,17.44,11.14s0,.01-.01.02l-.03.05c-4.7,7.43-2.96,16.98,3.9,21.37,6.86,4.39,16.3,1.93,21.04-5.5v-.02s17.45,11.14,17.45,11.14l11.19-17.54c-4.25-4.92-4.81-12.58-.89-18.76l.03-.05c3.97-6.18,11.16-8.92,17.42-7.13l10.9-17.09-17.44-11.14h0s.03-.05.03-.05c4.71-7.43,2.97-16.98-3.89-21.37-6.86-4.39-16.3-1.93-21.05,5.5Z"/></svg>