<?xml version="1.0" encoding="UTF-8"?><svg id="Layer_1" xmlns="http://www.w3.org/2000/svg" viewBox="0 0 102.05 116.22"><defs><style>.cls-1{fill:#9282e0;stroke-width:0px;}</style></defs><path class="cls-1" d="m36.37,22.12l-20.69-.08-.06,18.93c5.56,2.65,9.55,9.61,9.55,17.74v.09c0,5.06-1.56,9.81-4.33,13.38-1.55,1.99-3.37,3.47-5.35,4.39l-.06,17.32,20.69.08s0,.01,0,.02v.06c0,8.79,6.58,15.93,14.73,15.97,8.14.03,14.8-7.09,14.83-15.91v-.02l20.69.08.07-20.8c-6.23-1.88-10.79-8.05-10.79-15.37v-.06c.05-7.34,4.66-13.5,10.9-15.34l.07-20.27-20.69-.08h0v-.06c0-8.79-6.58-15.93-14.72-15.97-8.14-.03-14.8,7.09-14.84,15.91Z"/></svg>