<?xml version="1.0" encoding="UTF-8"?><svg id="Layer_1" xmlns="http://www.w3.org/2000/svg" viewBox="0 0 116.22 102.05"><defs><style>.cls-1{fill:#7babf1;stroke-width:0px;}</style></defs><path class="cls-1" d="m90.36,29.34l-4.14-20.27-18.55,3.8c-1.46,5.99-7.46,11.31-15.42,12.97l-.09.02c-4.96,1.03-9.93.48-13.98-1.51-2.27-1.11-4.09-2.59-5.38-4.34l-16.97,3.47,4.14,20.27s-.01,0-.02,0h-.06c-8.6,1.8-14.26,9.7-12.63,17.68,1.63,7.98,9.96,13.05,18.6,11.28h.02s4.14,20.27,4.14,20.27l20.38-4.17c.57-6.48,5.68-12.21,12.85-13.7h.06c7.2-1.46,14.17,1.79,17.24,7.53l19.86-4.06-4.14-20.27h0s.06-.01.06-.01c8.61-1.79,14.26-9.69,12.63-17.67-1.63-7.98-9.96-13.05-18.6-11.28Z"/></svg>