<?xml version="1.0" encoding="UTF-8"?><svg id="Layer_1" xmlns="http://www.w3.org/2000/svg" viewBox="0 0 116.22 102.05"><defs><style>.cls-1{fill:#4c5884;stroke-width:0px;}</style></defs><path class="cls-1" d="m94.1,36.37l.08-20.69-18.93-.06c-2.65,5.56-9.61,9.55-17.74,9.55h-.09c-5.06,0-9.81-1.56-13.38-4.33-1.99-1.55-3.47-3.37-4.39-5.35l-17.32-.06-.08,20.69s-.01,0-.02,0h-.06c-8.79,0-15.93,6.58-15.97,14.73-.03,8.14,7.09,14.8,15.91,14.83h.02l-.08,20.69,20.8.07c1.88-6.23,8.05-10.79,15.37-10.79h.06c7.34.05,13.5,4.66,15.34,10.9l20.27.07.08-20.69h.06c8.79,0,15.93-6.58,15.97-14.72.03-8.14-7.09-14.8-15.91-14.84Z"/></svg>